<svg version="1.1" id="Layer_1" xmlns="http://www.w3.org/2000/svg" xmlns:xlink="http://www.w3.org/1999/xlink" x="0px" y="0px" preserveAspectRatio="xMidYMin" height="125px" viewBox="0 0 147.403 88.458" enable-background="new 0 0 147.403 88.458" xml:space="preserve">
<polygon fill="#53A3D8" points="24.484,17.68 26.455,21.093 117.029,21.093 117.029,57.588 120.442,57.588 120.442,17.68 "></polygon>
<polygon fill="#53A3D8" points="29.382,35.302 21.213,21.155 13.043,35.302 "></polygon>
<polygon fill="#53A3D8" points="110.566,56.369 118.735,70.516 126.905,56.369 "></polygon>
<polygon fill="#53A3D8" points="113.493,70.578 22.919,70.578 22.919,34.083 19.506,34.083 19.506,73.992 115.464,73.992 "></polygon>
<rect x="80.368" y="4.817" fill="#f5f5f5" width="61.92" height="23.411"></rect>
<g>
<path d="M86.758,18.301c0-0.74-0.38-1.5-1.72-1.521v-1.4c1.34-0.02,1.72-0.78,1.72-1.5c0-1.26-0.18-2.261-0.18-3.641
              c0-2.101,0.78-2.761,2.44-2.761h1.101v1.28h-0.48c-0.94,0-1.2,0.38-1.2,1.58c0,1.12,0.101,2.241,0.101,3.441
              c0,1.42-0.4,2.021-1.341,2.26v0.08c0.94,0.24,1.341,0.86,1.341,2.261c0,1.28-0.101,2.301-0.101,3.44c0,1.2,0.26,1.601,1.2,1.601
              h0.48v1.261h-1.101c-1.66,0-2.44-0.641-2.44-2.761C86.579,20.481,86.758,19.601,86.758,18.301z"></path>
<path d="M96.459,11.819h2.32v10.322c0,2.08-0.801,3.621-3.121,3.621c-0.72,0-1.22-0.12-1.601-0.261l0.44-1.72
              c0.26,0.08,0.54,0.16,0.84,0.16c0.881,0,1.121-0.62,1.121-1.761V11.819z M96.198,8.799c0-0.78,0.62-1.32,1.421-1.32
              c0.82,0,1.44,0.54,1.44,1.32c0,0.76-0.62,1.301-1.44,1.301C96.818,10.1,96.198,9.558,96.198,8.799z"></path>
<path d="M101.799,19.041c0.88,0.68,1.72,1.101,2.72,1.101c1.061,0,1.561-0.5,1.561-1.181c0-0.82-1.06-1.18-2.101-1.58
              c-1.3-0.48-2.761-1.221-2.761-2.86c0-1.721,1.381-2.941,3.581-2.941c1.36,0,2.461,0.561,3.261,1.181l-1.061,1.4
              c-0.68-0.5-1.38-0.84-2.16-0.84c-0.98,0-1.44,0.46-1.44,1.08c0,0.76,0.98,1.08,2.041,1.46c1.34,0.5,2.82,1.141,2.82,2.98
              c0,1.681-1.34,3.041-3.821,3.041c-1.34,0-2.76-0.58-3.721-1.36L101.799,19.041z"></path>
<path d="M114.339,11.579c2.461,0,4.681,1.881,4.681,5.161c0,3.261-2.22,5.142-4.681,5.142c-2.44,0-4.661-1.881-4.661-5.142
              C109.677,13.46,111.898,11.579,114.339,11.579z M114.339,20.001c1.44,0,2.32-1.3,2.32-3.261c0-1.98-0.88-3.28-2.32-3.28
              s-2.301,1.3-2.301,3.28C112.038,18.701,112.898,20.001,114.339,20.001z"></path>
<path d="M121.298,11.819h1.9l0.16,1.32h0.08c0.88-0.86,1.88-1.561,3.221-1.561c2.101,0,3.021,1.421,3.021,3.901v6.161h-2.301V15.78
              c0-1.62-0.46-2.221-1.54-2.221c-0.86,0-1.42,0.42-2.24,1.221v6.861h-2.301V11.819z"></path>
<path d="M136.357,23.422c0.961,0,1.221-0.4,1.221-1.601c0-1.14-0.101-2.16-0.101-3.44c0-1.4,0.4-2.021,1.341-2.261v-0.08
              c-0.94-0.239-1.341-0.84-1.341-2.26c0-1.2,0.101-2.321,0.101-3.441c0-1.2-0.26-1.58-1.221-1.58h-0.46v-1.28h1.08
              c1.681,0,2.461,0.66,2.461,2.761c0,1.38-0.18,2.381-0.18,3.641c0,0.72,0.38,1.48,1.72,1.5v1.4c-1.34,0.021-1.72,0.78-1.72,1.521
              c0,1.301,0.18,2.181,0.18,3.621c0,2.12-0.78,2.761-2.461,2.761h-1.08v-1.261H136.357z"></path>
</g>
<rect x="2.787" y="62.087" fill="#f5f5f5" width="43.609" height="25.371"></rect>
<g>
<path d="M8.313,65.12h2.3v3.641l-0.08,1.9c0.82-0.78,1.8-1.48,3.141-1.48c2.101,0,3.021,1.421,3.021,3.901v6.161h-2.301v-5.861
              c0-1.62-0.46-2.221-1.54-2.221c-0.86,0-1.42,0.42-2.241,1.221v6.861h-2.3V65.12z"></path>
<path d="M19.813,71.241h-1.4v-1.72l1.521-0.101l0.28-2.681h1.92v2.681h2.5v1.82h-2.5v4.682c0,1.16,0.44,1.72,1.38,1.72
              c0.34,0,0.74-0.1,1.021-0.22l0.4,1.7c-0.54,0.18-1.22,0.36-2,0.36c-2.28,0-3.121-1.44-3.121-3.561V71.241z"></path>
<path d="M27.033,71.241h-1.4v-1.72l1.521-0.101l0.28-2.681h1.92v2.681h2.5v1.82h-2.5v4.682c0,1.16,0.44,1.72,1.38,1.72
              c0.34,0,0.74-0.1,1.021-0.22l0.4,1.7c-0.54,0.18-1.22,0.36-2,0.36c-2.28,0-3.121-1.44-3.121-3.561V71.241z"></path>
<path d="M36.213,80.042v3.081h-2.3V69.42h1.9l0.16,1.04h0.08c0.82-0.7,1.88-1.28,2.961-1.28c2.44,0,3.861,1.961,3.861,5.001
              c0,3.361-2.021,5.302-4.201,5.302c-0.86,0-1.72-0.4-2.521-1.08L36.213,80.042z M38.194,77.582c1.3,0,2.3-1.16,2.3-3.381
              c0-1.961-0.64-3.121-2.12-3.121c-0.72,0-1.4,0.36-2.161,1.101v4.581C36.933,77.362,37.613,77.582,38.194,77.582z"></path>
</g>
</svg>
