<svg version="1.1" id="Layer_1" xmlns="http://www.w3.org/2000/svg" xmlns:xlink="http://www.w3.org/1999/xlink" x="0px" y="0px" preserveAspectRatio="xMidYMin" height="125px" viewBox="0 0 170.13 111.688" enable-background="new 0 0 170.13 111.688" xml:space="preserve">
<g>
<path d="M21.634,31.354h-1.188l3.948-10.439h1.188L21.634,31.354z"></path>
<path d="M27.49,26.493c0-0.487,0.09-0.924,0.27-1.308s0.422-0.708,0.726-0.972c0.304-0.265,0.66-0.466,1.068-0.606
              c0.408-0.14,0.836-0.21,1.284-0.21c0.48,0,0.902,0.08,1.266,0.24c0.364,0.16,0.67,0.356,0.918,0.588l-0.66,0.864
              c-0.232-0.185-0.466-0.324-0.702-0.42c-0.236-0.097-0.486-0.145-0.75-0.145c-0.592,0-1.072,0.179-1.44,0.534
              c-0.368,0.356-0.552,0.834-0.552,1.434c0,0.297,0.048,0.564,0.144,0.805c0.096,0.239,0.229,0.446,0.402,0.618
              c0.172,0.172,0.378,0.304,0.618,0.396c0.24,0.092,0.504,0.138,0.792,0.138c0.336,0,0.642-0.063,0.918-0.191
              c0.276-0.128,0.53-0.28,0.762-0.456l0.576,0.888c-0.336,0.296-0.712,0.519-1.128,0.666c-0.416,0.148-0.836,0.222-1.26,0.222
              c-0.464,0-0.894-0.067-1.29-0.203c-0.396-0.137-0.74-0.337-1.032-0.601c-0.292-0.264-0.521-0.588-0.684-0.972
              C27.572,27.418,27.49,26.982,27.49,26.493z"></path>
<path d="M34.45,26.493c0-0.487,0.082-0.924,0.246-1.308s0.382-0.708,0.654-0.972c0.272-0.265,0.588-0.466,0.948-0.606
              c0.36-0.14,0.732-0.21,1.116-0.21c0.384,0,0.756,0.07,1.116,0.21c0.36,0.141,0.676,0.342,0.948,0.606
              c0.272,0.264,0.49,0.588,0.654,0.972s0.246,0.82,0.246,1.308c0,0.488-0.082,0.925-0.246,1.309s-0.382,0.708-0.654,0.972
              s-0.588,0.464-0.948,0.601c-0.36,0.136-0.732,0.203-1.116,0.203c-0.384,0-0.756-0.067-1.116-0.203
              c-0.36-0.137-0.676-0.337-0.948-0.601s-0.49-0.588-0.654-0.972S34.45,26.982,34.45,26.493z M35.878,26.493
              c0,0.593,0.136,1.066,0.408,1.423c0.271,0.355,0.648,0.533,1.128,0.533s0.856-0.178,1.128-0.533
              c0.272-0.356,0.408-0.83,0.408-1.423c0-0.6-0.136-1.077-0.408-1.434c-0.272-0.355-0.648-0.534-1.128-0.534
              s-0.856,0.179-1.128,0.534C36.014,25.416,35.878,25.894,35.878,26.493z"></path>
<path d="M41.997,23.542h1.14l0.108,0.888h0.048c0.28-0.28,0.59-0.522,0.93-0.727c0.34-0.203,0.738-0.306,1.194-0.306
              c0.68,0,1.18,0.206,1.5,0.618s0.48,1.002,0.48,1.77v3.648h-1.392v-3.468c0-0.48-0.083-0.83-0.246-1.05
              c-0.164-0.221-0.45-0.33-0.858-0.33c-0.288,0-0.544,0.067-0.768,0.204c-0.224,0.136-0.472,0.344-0.744,0.624v4.02h-1.392V23.542z"></path>
<path d="M54.91,22.161c-0.216-0.088-0.426-0.151-0.63-0.191s-0.426-0.061-0.666-0.061c-0.456,0-0.786,0.11-0.99,0.33
              c-0.204,0.221-0.306,0.538-0.306,0.954v0.349h2.244v1.092h-2.244v4.8H50.95v-4.8h-1.632v-1.032l1.632-0.06v-0.324
              c0-0.344,0.048-0.664,0.144-0.96c0.096-0.296,0.246-0.55,0.45-0.763c0.204-0.211,0.464-0.378,0.78-0.497
              c0.316-0.12,0.69-0.181,1.122-0.181c0.32,0,0.626,0.028,0.918,0.084c0.292,0.057,0.57,0.137,0.834,0.24L54.91,22.161z"></path>
<path d="M56.421,23.542h3.936v5.892h-1.38v-4.8h-2.556V23.542z M59.565,22.51c-0.28,0-0.514-0.084-0.702-0.252
              c-0.188-0.168-0.282-0.393-0.282-0.672c0-0.28,0.094-0.506,0.282-0.679c0.188-0.172,0.422-0.258,0.702-0.258
              c0.288,0,0.524,0.086,0.708,0.258c0.184,0.173,0.276,0.398,0.276,0.679c0,0.279-0.092,0.504-0.276,0.672S59.853,22.51,59.565,22.51
              z"></path>
<path d="M63.357,30.466c0-0.232,0.08-0.456,0.24-0.672c0.16-0.217,0.392-0.404,0.696-0.564v-0.048
              c-0.16-0.088-0.3-0.212-0.42-0.372c-0.12-0.16-0.18-0.364-0.18-0.612c0-0.199,0.064-0.397,0.192-0.594
              c0.128-0.196,0.3-0.37,0.516-0.521v-0.049c-0.208-0.144-0.386-0.344-0.534-0.6c-0.148-0.256-0.222-0.56-0.222-0.912
              c0-0.336,0.066-0.636,0.198-0.899c0.132-0.265,0.308-0.486,0.528-0.666c0.22-0.181,0.476-0.318,0.768-0.414
              c0.292-0.097,0.602-0.145,0.93-0.145c0.352,0,0.66,0.048,0.924,0.145h2.412v1.02h-1.38c0.104,0.12,0.196,0.267,0.276,0.438
              s0.12,0.361,0.12,0.569c0,0.328-0.06,0.616-0.18,0.864s-0.286,0.456-0.498,0.624s-0.462,0.294-0.75,0.378s-0.596,0.126-0.924,0.126
              c-0.296,0-0.596-0.052-0.9-0.156c-0.24,0.152-0.36,0.332-0.36,0.54c0,0.376,0.372,0.564,1.116,0.564h1.2
              c0.768,0,1.346,0.112,1.734,0.336c0.388,0.224,0.582,0.592,0.582,1.104c0,0.288-0.08,0.561-0.24,0.816s-0.386,0.478-0.678,0.666
              c-0.292,0.188-0.648,0.336-1.068,0.444c-0.42,0.107-0.89,0.161-1.41,0.161c-0.408,0-0.776-0.031-1.104-0.096
              c-0.328-0.063-0.61-0.162-0.846-0.294c-0.236-0.132-0.418-0.296-0.546-0.492S63.357,30.73,63.357,30.466z M64.509,30.285
              c0,0.265,0.146,0.473,0.438,0.624c0.292,0.152,0.714,0.229,1.266,0.229c0.288,0,0.548-0.026,0.78-0.078s0.432-0.122,0.6-0.21
              s0.296-0.19,0.384-0.306c0.088-0.116,0.132-0.238,0.132-0.366c0-0.232-0.1-0.386-0.3-0.462c-0.2-0.076-0.496-0.114-0.888-0.114
              h-0.936c-0.192,0-0.362-0.006-0.51-0.018c-0.148-0.013-0.278-0.038-0.39-0.078c-0.208,0.128-0.356,0.256-0.444,0.384
              S64.509,30.15,64.509,30.285z M66.069,26.697c0.304,0,0.568-0.102,0.792-0.306c0.224-0.204,0.336-0.494,0.336-0.87
              c0-0.36-0.112-0.646-0.336-0.857c-0.224-0.212-0.488-0.318-0.792-0.318c-0.304,0-0.566,0.106-0.786,0.318s-0.33,0.497-0.33,0.857
              c0,0.376,0.11,0.666,0.33,0.87S65.765,26.697,66.069,26.697z"></path>
<path d="M35.89,45.754h-0.888l3.936-10.439h0.888L35.89,45.754z"></path>
<path d="M41.734,40.93c0-0.472,0.074-0.897,0.222-1.277s0.344-0.702,0.588-0.967c0.244-0.264,0.526-0.468,0.846-0.611
              c0.32-0.145,0.652-0.216,0.996-0.216c0.36,0,0.676,0.067,0.948,0.203c0.272,0.137,0.544,0.32,0.816,0.553l-0.036-1.08V35.29h0.984
              v8.544h-0.816l-0.084-0.768h-0.036c-0.24,0.248-0.526,0.462-0.858,0.642s-0.678,0.27-1.038,0.27c-0.384,0-0.73-0.067-1.038-0.203
              c-0.308-0.137-0.574-0.334-0.798-0.595c-0.224-0.26-0.396-0.577-0.516-0.954C41.793,41.85,41.734,41.418,41.734,40.93z
               M42.754,40.918c0,0.704,0.15,1.252,0.45,1.644c0.3,0.393,0.722,0.589,1.266,0.589c0.576,0,1.124-0.292,1.644-0.876V39.37
              c-0.264-0.248-0.522-0.424-0.774-0.528c-0.252-0.104-0.506-0.156-0.762-0.156s-0.494,0.055-0.714,0.162
              c-0.22,0.108-0.412,0.261-0.576,0.456c-0.164,0.196-0.294,0.431-0.39,0.702C42.802,40.278,42.754,40.582,42.754,40.918z"></path>
<path d="M49.186,42.322c0-0.328,0.078-0.614,0.234-0.858c0.156-0.244,0.404-0.454,0.744-0.63c0.34-0.176,0.778-0.32,1.314-0.432
              c0.536-0.112,1.18-0.2,1.932-0.265c-0.008-0.199-0.04-0.388-0.096-0.563c-0.056-0.176-0.144-0.33-0.264-0.462
              s-0.278-0.238-0.474-0.318c-0.196-0.08-0.434-0.12-0.714-0.12c-0.384,0-0.752,0.074-1.104,0.222
              c-0.352,0.148-0.664,0.307-0.936,0.475l-0.384-0.672c0.144-0.097,0.314-0.194,0.51-0.294c0.196-0.101,0.404-0.19,0.624-0.271
              s0.454-0.146,0.702-0.198c0.248-0.052,0.5-0.077,0.756-0.077c0.8,0,1.394,0.218,1.782,0.653c0.388,0.437,0.582,1.019,0.582,1.746
              v3.576H53.59l-0.084-0.792H53.47c-0.328,0.256-0.69,0.476-1.086,0.66c-0.396,0.184-0.802,0.275-1.218,0.275
              c-0.272,0-0.528-0.038-0.768-0.113c-0.24-0.076-0.45-0.185-0.63-0.324c-0.18-0.14-0.322-0.312-0.426-0.516
              C49.238,42.82,49.186,42.586,49.186,42.322z M50.146,42.25c0,0.168,0.036,0.311,0.108,0.426c0.072,0.116,0.166,0.212,0.282,0.288
              c0.116,0.076,0.252,0.132,0.408,0.168c0.156,0.036,0.318,0.054,0.486,0.054c0.336,0,0.666-0.073,0.99-0.222
              c0.324-0.147,0.654-0.361,0.99-0.642v-1.536c-0.624,0.048-1.146,0.116-1.566,0.204s-0.756,0.193-1.008,0.317
              s-0.43,0.265-0.534,0.42C50.198,41.884,50.146,42.058,50.146,42.25z"></path>
<path d="M57.886,38.806h-1.644v-0.744l1.68-0.06l0.132-1.632h0.816v1.632h2.868v0.804H58.87v2.772c0,0.264,0.024,0.494,0.072,0.689
              c0.048,0.196,0.128,0.362,0.24,0.498c0.112,0.137,0.264,0.238,0.456,0.307c0.192,0.067,0.428,0.102,0.708,0.102
              c0.28,0,0.532-0.023,0.756-0.072c0.224-0.048,0.44-0.111,0.648-0.191l0.216,0.72c-0.264,0.096-0.556,0.179-0.876,0.246
              c-0.32,0.068-0.64,0.102-0.96,0.102c-0.424,0-0.78-0.058-1.068-0.174c-0.288-0.115-0.518-0.279-0.69-0.492
              c-0.172-0.211-0.296-0.466-0.372-0.762s-0.114-0.624-0.114-0.983V38.806z"></path>
<path d="M63.585,42.322c0-0.328,0.078-0.614,0.234-0.858c0.156-0.244,0.404-0.454,0.744-0.63c0.34-0.176,0.778-0.32,1.314-0.432
              c0.536-0.112,1.18-0.2,1.932-0.265c-0.008-0.199-0.04-0.388-0.096-0.563c-0.056-0.176-0.144-0.33-0.264-0.462
              s-0.278-0.238-0.474-0.318c-0.196-0.08-0.434-0.12-0.714-0.12c-0.384,0-0.752,0.074-1.104,0.222
              c-0.352,0.148-0.664,0.307-0.936,0.475l-0.384-0.672c0.144-0.097,0.314-0.194,0.51-0.294c0.196-0.101,0.404-0.19,0.624-0.271
              s0.454-0.146,0.702-0.198c0.248-0.052,0.5-0.077,0.756-0.077c0.8,0,1.394,0.218,1.782,0.653c0.388,0.437,0.582,1.019,0.582,1.746
              v3.576h-0.804l-0.084-0.792h-0.036c-0.328,0.256-0.69,0.476-1.086,0.66c-0.396,0.184-0.802,0.275-1.218,0.275
              c-0.272,0-0.528-0.038-0.768-0.113c-0.24-0.076-0.45-0.185-0.63-0.324c-0.18-0.14-0.322-0.312-0.426-0.516
              C63.637,42.82,63.585,42.586,63.585,42.322z M64.545,42.25c0,0.168,0.036,0.311,0.108,0.426c0.072,0.116,0.166,0.212,0.282,0.288
              c0.116,0.076,0.252,0.132,0.408,0.168c0.156,0.036,0.318,0.054,0.486,0.054c0.336,0,0.666-0.073,0.99-0.222
              c0.324-0.147,0.654-0.361,0.99-0.642v-1.536c-0.624,0.048-1.146,0.116-1.566,0.204s-0.756,0.193-1.008,0.317
              s-0.43,0.265-0.534,0.42C64.597,41.884,64.545,42.058,64.545,42.25z"></path>
<path d="M70.93,35.29h0.984v2.328l-0.024,1.128c0.28-0.272,0.594-0.488,0.942-0.648c0.348-0.159,0.694-0.239,1.038-0.239
              c0.392,0,0.74,0.069,1.044,0.21c0.304,0.14,0.558,0.34,0.762,0.6c0.204,0.26,0.358,0.572,0.462,0.936
              c0.104,0.364,0.156,0.771,0.156,1.219c0,0.496-0.072,0.939-0.216,1.332c-0.144,0.392-0.338,0.724-0.582,0.996
              c-0.244,0.271-0.526,0.478-0.846,0.617c-0.32,0.141-0.652,0.21-0.996,0.21c-0.28,0-0.582-0.069-0.906-0.21
              c-0.324-0.14-0.626-0.334-0.906-0.582h-0.036l-0.084,0.648H70.93V35.29z M71.913,42.466c0.28,0.248,0.562,0.424,0.846,0.528
              c0.284,0.104,0.53,0.156,0.738,0.156c0.256,0,0.492-0.055,0.708-0.162c0.216-0.108,0.404-0.26,0.564-0.456
              c0.16-0.196,0.284-0.438,0.372-0.727c0.088-0.288,0.132-0.611,0.132-0.972c0-0.32-0.032-0.612-0.096-0.876s-0.162-0.49-0.294-0.678
              c-0.132-0.188-0.302-0.334-0.51-0.438c-0.208-0.104-0.456-0.156-0.744-0.156c-0.256,0-0.53,0.07-0.822,0.21
              c-0.292,0.141-0.59,0.362-0.894,0.666V42.466z"></path>
<path d="M77.985,42.322c0-0.328,0.078-0.614,0.234-0.858c0.156-0.244,0.404-0.454,0.744-0.63c0.34-0.176,0.778-0.32,1.314-0.432
              c0.536-0.112,1.18-0.2,1.932-0.265c-0.008-0.199-0.04-0.388-0.096-0.563c-0.056-0.176-0.144-0.33-0.264-0.462
              s-0.278-0.238-0.474-0.318c-0.196-0.08-0.434-0.12-0.714-0.12c-0.384,0-0.752,0.074-1.104,0.222
              c-0.352,0.148-0.664,0.307-0.936,0.475l-0.384-0.672c0.144-0.097,0.314-0.194,0.51-0.294c0.196-0.101,0.404-0.19,0.624-0.271
              s0.454-0.146,0.702-0.198c0.248-0.052,0.5-0.077,0.756-0.077c0.8,0,1.394,0.218,1.782,0.653c0.388,0.437,0.582,1.019,0.582,1.746
              v3.576h-0.804l-0.084-0.792h-0.036c-0.328,0.256-0.69,0.476-1.086,0.66c-0.396,0.184-0.802,0.275-1.218,0.275
              c-0.272,0-0.528-0.038-0.768-0.113c-0.24-0.076-0.45-0.185-0.63-0.324c-0.18-0.14-0.322-0.312-0.426-0.516
              C78.037,42.82,77.985,42.586,77.985,42.322z M78.945,42.25c0,0.168,0.036,0.311,0.108,0.426c0.072,0.116,0.166,0.212,0.282,0.288
              c0.116,0.076,0.252,0.132,0.408,0.168c0.156,0.036,0.318,0.054,0.486,0.054c0.336,0,0.666-0.073,0.99-0.222
              c0.324-0.147,0.654-0.361,0.99-0.642v-1.536c-0.624,0.048-1.146,0.116-1.566,0.204s-0.756,0.193-1.008,0.317
              s-0.43,0.265-0.534,0.42C78.997,41.884,78.945,42.058,78.945,42.25z"></path>
<path d="M85.557,42.418c0.328,0.24,0.68,0.432,1.056,0.576c0.376,0.144,0.828,0.216,1.355,0.216c0.528,0,0.92-0.088,1.177-0.264
              c0.256-0.176,0.384-0.393,0.384-0.648c0-0.224-0.138-0.424-0.414-0.6s-0.771-0.353-1.482-0.528c-0.304-0.072-0.59-0.16-0.857-0.264
              c-0.269-0.104-0.502-0.227-0.702-0.366s-0.36-0.294-0.48-0.462s-0.18-0.356-0.18-0.564c0-0.231,0.052-0.449,0.156-0.653
              s0.258-0.38,0.462-0.528c0.205-0.148,0.46-0.264,0.768-0.348c0.309-0.084,0.662-0.126,1.062-0.126c0.439,0,0.868,0.073,1.284,0.222
              c0.415,0.148,0.768,0.322,1.056,0.521l-0.48,0.637c-0.256-0.185-0.54-0.332-0.852-0.444s-0.648-0.168-1.008-0.168
              c-0.272,0-0.5,0.022-0.685,0.066c-0.184,0.044-0.332,0.104-0.443,0.18c-0.112,0.076-0.192,0.166-0.24,0.27
              c-0.048,0.104-0.072,0.213-0.072,0.324c0,0.24,0.164,0.438,0.492,0.594c0.328,0.156,0.756,0.303,1.284,0.438
              c0.792,0.2,1.378,0.428,1.758,0.684c0.38,0.257,0.57,0.608,0.57,1.057c0,0.239-0.057,0.464-0.168,0.672
              c-0.112,0.208-0.278,0.392-0.498,0.552c-0.221,0.16-0.492,0.286-0.816,0.378s-0.694,0.138-1.109,0.138
              c-0.576,0-1.106-0.09-1.591-0.27c-0.484-0.18-0.906-0.394-1.266-0.642L85.557,42.418z"></path>
<path d="M92.241,40.93c0-0.479,0.084-0.909,0.252-1.29c0.168-0.38,0.391-0.702,0.666-0.966c0.276-0.264,0.592-0.466,0.948-0.605
              c0.355-0.141,0.722-0.21,1.098-0.21c0.416,0,0.788,0.065,1.116,0.197s0.606,0.318,0.834,0.559c0.229,0.239,0.402,0.527,0.522,0.863
              c0.119,0.337,0.18,0.708,0.18,1.116c0,0.104-0.002,0.206-0.006,0.307c-0.004,0.1-0.015,0.186-0.03,0.258h-4.56
              c0.008,0.312,0.069,0.592,0.186,0.84s0.271,0.46,0.468,0.636s0.428,0.312,0.696,0.408c0.268,0.096,0.562,0.144,0.882,0.144
              c0.344,0,0.658-0.048,0.942-0.144c0.283-0.096,0.562-0.228,0.834-0.396l0.348,0.648c-0.288,0.185-0.616,0.344-0.983,0.48
              c-0.368,0.136-0.788,0.203-1.261,0.203c-0.432,0-0.838-0.069-1.218-0.21c-0.38-0.14-0.712-0.34-0.996-0.6s-0.508-0.578-0.672-0.954
              S92.241,41.41,92.241,40.93z M96.945,40.45c0-0.584-0.152-1.032-0.456-1.344c-0.304-0.312-0.728-0.469-1.271-0.469
              c-0.24,0-0.471,0.04-0.69,0.12s-0.418,0.198-0.594,0.354c-0.177,0.155-0.324,0.346-0.444,0.569c-0.12,0.225-0.2,0.48-0.24,0.769
              H96.945z"></path>
<path d="M21.634,60.154h-1.188l3.948-10.44h1.188L21.634,60.154z"></path>
<path d="M33.309,50.961c-0.216-0.088-0.426-0.151-0.63-0.191s-0.426-0.061-0.666-0.061c-0.456,0-0.786,0.11-0.99,0.33
              c-0.204,0.221-0.306,0.538-0.306,0.954v0.349h2.244v1.092h-2.244v4.8H29.35v-4.8h-1.632v-1.032l1.632-0.06v-0.324
              c0-0.344,0.048-0.664,0.144-0.96c0.096-0.296,0.246-0.55,0.45-0.763c0.204-0.211,0.464-0.378,0.78-0.497
              c0.316-0.12,0.69-0.181,1.122-0.181c0.32,0,0.626,0.028,0.918,0.084c0.292,0.057,0.57,0.137,0.834,0.24L33.309,50.961z"></path>
<path d="M34.558,55.293c0-0.479,0.086-0.911,0.258-1.296c0.172-0.384,0.398-0.71,0.678-0.978c0.28-0.269,0.602-0.472,0.966-0.612
              c0.364-0.14,0.738-0.21,1.122-0.21c0.44,0,0.83,0.07,1.17,0.21c0.34,0.141,0.626,0.332,0.858,0.576s0.408,0.538,0.528,0.882
              c0.12,0.344,0.18,0.72,0.18,1.128c0,0.137-0.006,0.265-0.018,0.384c-0.012,0.12-0.026,0.217-0.042,0.288h-4.284
              c0.048,0.528,0.256,0.934,0.624,1.219c0.368,0.283,0.82,0.426,1.356,0.426c0.304,0,0.588-0.043,0.852-0.127
              c0.264-0.084,0.532-0.201,0.804-0.354l0.468,0.863c-0.32,0.201-0.676,0.365-1.068,0.492c-0.392,0.129-0.804,0.191-1.236,0.191
              c-0.448,0-0.868-0.068-1.26-0.209c-0.392-0.141-0.732-0.342-1.02-0.605c-0.288-0.264-0.516-0.586-0.684-0.967
              C34.642,56.216,34.558,55.781,34.558,55.293z M39.046,54.73c0-0.456-0.12-0.814-0.36-1.074c-0.24-0.26-0.596-0.39-1.068-0.39
              c-0.4,0-0.756,0.124-1.068,0.372s-0.508,0.611-0.588,1.092H39.046z"></path>
<path d="M41.866,56.65c0-0.328,0.076-0.619,0.228-0.871c0.152-0.252,0.392-0.466,0.72-0.642s0.748-0.32,1.26-0.433
              c0.512-0.111,1.132-0.191,1.86-0.239c-0.024-0.336-0.144-0.612-0.36-0.828s-0.564-0.324-1.044-0.324
              c-0.336,0-0.666,0.062-0.99,0.186c-0.324,0.124-0.638,0.271-0.942,0.438l-0.504-0.924c0.36-0.208,0.772-0.396,1.236-0.564
              s0.948-0.252,1.452-0.252c0.824,0,1.452,0.218,1.884,0.654c0.432,0.436,0.648,1.066,0.648,1.89v3.493h-1.128l-0.108-0.732h-0.036
              c-0.312,0.24-0.658,0.445-1.038,0.617c-0.38,0.172-0.771,0.258-1.17,0.258c-0.288,0-0.552-0.041-0.792-0.125
              c-0.24-0.084-0.448-0.201-0.624-0.354c-0.176-0.152-0.312-0.334-0.408-0.547C41.913,57.14,41.866,56.906,41.866,56.65z
               M43.198,56.541c0,0.266,0.102,0.457,0.306,0.576c0.204,0.121,0.454,0.182,0.75,0.182c0.295,0,0.582-0.066,0.858-0.199
              c0.276-0.131,0.55-0.307,0.822-0.521v-1.249c-0.528,0.04-0.968,0.095-1.32,0.162c-0.352,0.068-0.632,0.154-0.84,0.258
              c-0.208,0.104-0.356,0.223-0.444,0.354C43.242,56.236,43.198,56.382,43.198,56.541z"></path>
<path d="M50.494,53.434h-1.572v-1.032l1.632-0.06l0.18-1.608h1.14v1.608h2.688v1.092h-2.688v2.424c0,0.488,0.1,0.845,0.3,1.074
              c0.2,0.229,0.552,0.342,1.056,0.342c0.256,0,0.488-0.021,0.696-0.066c0.208-0.043,0.408-0.102,0.6-0.174l0.264,1.008
              c-0.264,0.09-0.556,0.168-0.876,0.234c-0.32,0.068-0.66,0.102-1.02,0.102c-0.448,0-0.824-0.059-1.128-0.18
              c-0.304-0.119-0.55-0.289-0.738-0.51c-0.188-0.219-0.324-0.486-0.408-0.797c-0.084-0.312-0.126-0.656-0.126-1.033V53.434z"></path>
<path d="M61.594,58.234h-1.128l-0.108-0.936h-0.048c-0.28,0.328-0.588,0.59-0.924,0.785s-0.724,0.293-1.164,0.293
              c-0.688,0-1.188-0.205-1.5-0.617s-0.468-1.002-0.468-1.77v-3.648h1.38v3.468c0,0.479,0.082,0.831,0.246,1.049
              c0.164,0.221,0.45,0.33,0.858,0.33c0.28,0,0.53-0.064,0.75-0.191c0.22-0.129,0.462-0.355,0.726-0.684v-3.972h1.38V58.234z"></path>
<path d="M64.173,52.342h1.14l0.12,1.332h0.036c0.304-0.48,0.67-0.847,1.098-1.099c0.428-0.252,0.898-0.378,1.41-0.378
              c0.24,0,0.446,0.019,0.618,0.054c0.172,0.036,0.346,0.099,0.522,0.187l-0.288,1.164c-0.192-0.064-0.362-0.11-0.51-0.138
              c-0.148-0.028-0.334-0.042-0.558-0.042c-0.408,0-0.8,0.115-1.176,0.348c-0.376,0.232-0.716,0.636-1.02,1.212v3.252h-1.392V52.342z"></path>
<path d="M70.558,55.293c0-0.479,0.086-0.911,0.258-1.296c0.172-0.384,0.398-0.71,0.678-0.978c0.28-0.269,0.602-0.472,0.966-0.612
              c0.364-0.14,0.738-0.21,1.122-0.21c0.44,0,0.83,0.07,1.17,0.21c0.34,0.141,0.626,0.332,0.858,0.576s0.408,0.538,0.528,0.882
              c0.12,0.344,0.18,0.72,0.18,1.128c0,0.137-0.006,0.265-0.018,0.384c-0.012,0.12-0.026,0.217-0.042,0.288h-4.284
              c0.048,0.528,0.256,0.934,0.624,1.219c0.368,0.283,0.82,0.426,1.356,0.426c0.304,0,0.588-0.043,0.852-0.127
              c0.264-0.084,0.532-0.201,0.804-0.354l0.468,0.863c-0.32,0.201-0.676,0.365-1.068,0.492c-0.392,0.129-0.804,0.191-1.236,0.191
              c-0.448,0-0.868-0.068-1.26-0.209c-0.392-0.141-0.732-0.342-1.02-0.605c-0.288-0.264-0.516-0.586-0.684-0.967
              C70.642,56.216,70.558,55.781,70.558,55.293z M75.045,54.73c0-0.456-0.12-0.814-0.36-1.074c-0.24-0.26-0.596-0.39-1.068-0.39
              c-0.4,0-0.756,0.124-1.068,0.372s-0.508,0.611-0.588,1.092H75.045z"></path>
<path d="M77.949,53.77h5.328v1.008h-5.328V53.77z"></path>
<path d="M90.909,50.961c-0.216-0.088-0.426-0.151-0.63-0.191s-0.426-0.061-0.666-0.061c-0.456,0-0.786,0.11-0.99,0.33
              c-0.204,0.221-0.306,0.538-0.306,0.954v0.349h2.244v1.092h-2.244v4.8h-1.368v-4.8h-1.632v-1.032l1.632-0.06v-0.324
              c0-0.344,0.048-0.664,0.144-0.96c0.097-0.296,0.246-0.55,0.45-0.763c0.204-0.211,0.464-0.378,0.78-0.497
              c0.315-0.12,0.689-0.181,1.122-0.181c0.319,0,0.626,0.028,0.918,0.084c0.292,0.057,0.57,0.137,0.834,0.24L90.909,50.961z"></path>
<path d="M92.266,49.762h3.239v6.396c0,0.4,0.101,0.682,0.301,0.846c0.199,0.164,0.451,0.246,0.756,0.246
              c0.288,0,0.624-0.076,1.008-0.229l0.324,1.02c-0.28,0.098-0.542,0.178-0.786,0.24c-0.244,0.064-0.538,0.096-0.882,0.096
              c-0.696,0-1.221-0.199-1.572-0.6c-0.353-0.398-0.528-0.963-0.528-1.691v-5.232h-1.859V49.762z"></path>
<path d="M99.465,56.65c0-0.328,0.076-0.619,0.229-0.871c0.151-0.252,0.392-0.466,0.72-0.642s0.748-0.32,1.26-0.433
              c0.512-0.111,1.132-0.191,1.86-0.239c-0.024-0.336-0.145-0.612-0.36-0.828s-0.563-0.324-1.044-0.324
              c-0.336,0-0.666,0.062-0.99,0.186c-0.323,0.124-0.638,0.271-0.941,0.438l-0.504-0.924c0.359-0.208,0.771-0.396,1.235-0.564
              s0.948-0.252,1.452-0.252c0.824,0,1.452,0.218,1.884,0.654c0.433,0.436,0.648,1.066,0.648,1.89v3.493h-1.128l-0.108-0.732h-0.036
              c-0.312,0.24-0.657,0.445-1.037,0.617c-0.381,0.172-0.771,0.258-1.171,0.258c-0.287,0-0.552-0.041-0.792-0.125
              c-0.239-0.084-0.447-0.201-0.624-0.354c-0.176-0.152-0.312-0.334-0.407-0.547C99.513,57.14,99.465,56.906,99.465,56.65z
               M100.797,56.541c0,0.266,0.103,0.457,0.307,0.576c0.203,0.121,0.453,0.182,0.75,0.182c0.295,0,0.581-0.066,0.857-0.199
              c0.276-0.131,0.55-0.307,0.822-0.521v-1.249c-0.528,0.04-0.968,0.095-1.32,0.162c-0.352,0.068-0.632,0.154-0.84,0.258
              c-0.208,0.104-0.356,0.223-0.444,0.354C100.841,56.236,100.797,56.382,100.797,56.541z"></path>
<path d="M106.557,59.265c0-0.232,0.08-0.455,0.24-0.672s0.392-0.404,0.696-0.564v-0.047c-0.16-0.088-0.301-0.213-0.421-0.373
              c-0.119-0.16-0.18-0.363-0.18-0.611c0-0.199,0.064-0.398,0.192-0.594c0.128-0.197,0.3-0.371,0.516-0.522v-0.049
              c-0.208-0.144-0.386-0.344-0.534-0.6c-0.147-0.256-0.222-0.56-0.222-0.912c0-0.336,0.066-0.636,0.198-0.899
              c0.132-0.265,0.308-0.486,0.527-0.666c0.221-0.181,0.477-0.318,0.769-0.414c0.292-0.097,0.602-0.145,0.93-0.145
              c0.353,0,0.66,0.048,0.924,0.145h2.412v1.02h-1.38c0.104,0.12,0.196,0.267,0.276,0.438s0.12,0.361,0.12,0.569
              c0,0.328-0.061,0.616-0.181,0.864s-0.286,0.456-0.498,0.624c-0.212,0.167-0.462,0.294-0.75,0.378s-0.596,0.125-0.924,0.125
              c-0.296,0-0.596-0.051-0.899-0.156c-0.24,0.152-0.36,0.332-0.36,0.541c0,0.375,0.372,0.564,1.116,0.564h1.2
              c0.768,0,1.346,0.111,1.733,0.336c0.388,0.223,0.582,0.592,0.582,1.104c0,0.287-0.08,0.561-0.24,0.816s-0.386,0.477-0.678,0.666
              c-0.292,0.188-0.647,0.336-1.068,0.443c-0.42,0.107-0.89,0.162-1.409,0.162c-0.408,0-0.776-0.031-1.104-0.096
              s-0.61-0.162-0.846-0.295c-0.236-0.131-0.418-0.295-0.546-0.492C106.621,59.759,106.557,59.529,106.557,59.265z M107.709,59.086
              c0,0.264,0.146,0.473,0.438,0.623c0.292,0.152,0.714,0.229,1.267,0.229c0.288,0,0.548-0.025,0.779-0.078
              c0.232-0.051,0.433-0.121,0.601-0.209s0.296-0.191,0.384-0.307s0.132-0.238,0.132-0.365c0-0.232-0.1-0.387-0.3-0.463
              s-0.496-0.113-0.888-0.113h-0.937c-0.191,0-0.362-0.006-0.51-0.018c-0.148-0.014-0.278-0.039-0.39-0.078
              c-0.209,0.127-0.356,0.256-0.444,0.383C107.753,58.818,107.709,58.949,107.709,59.086z M109.268,55.497
              c0.304,0,0.568-0.102,0.792-0.306s0.336-0.494,0.336-0.87c0-0.36-0.112-0.646-0.336-0.857s-0.488-0.318-0.792-0.318
              s-0.565,0.106-0.786,0.318c-0.22,0.212-0.33,0.497-0.33,0.857c0,0.376,0.11,0.666,0.33,0.87
              C108.703,55.396,108.965,55.497,109.268,55.497z"></path>
<path d="M114.405,56.589c0.336,0.232,0.686,0.414,1.05,0.547c0.364,0.131,0.773,0.197,1.229,0.197c0.464,0,0.805-0.066,1.021-0.197
              c0.216-0.133,0.324-0.303,0.324-0.512c0-0.207-0.141-0.381-0.42-0.521c-0.28-0.139-0.721-0.29-1.32-0.45
              c-0.28-0.072-0.552-0.16-0.816-0.264c-0.264-0.104-0.496-0.225-0.695-0.36c-0.2-0.136-0.36-0.292-0.48-0.468
              s-0.18-0.376-0.18-0.601c0-0.52,0.224-0.943,0.672-1.271s1.092-0.492,1.932-0.492c0.48,0,0.932,0.08,1.356,0.24
              c0.424,0.16,0.788,0.34,1.092,0.54l-0.636,0.852c-0.265-0.176-0.546-0.317-0.847-0.426c-0.3-0.108-0.617-0.162-0.953-0.162
              c-0.456,0-0.776,0.062-0.961,0.187c-0.184,0.124-0.275,0.277-0.275,0.462c0,0.104,0.042,0.197,0.126,0.282
              c0.084,0.084,0.2,0.159,0.348,0.228c0.148,0.068,0.322,0.134,0.522,0.198c0.199,0.063,0.42,0.124,0.66,0.18
              c0.344,0.088,0.653,0.187,0.93,0.294c0.276,0.108,0.512,0.23,0.708,0.366s0.348,0.296,0.456,0.48
              c0.107,0.184,0.162,0.396,0.162,0.637c0,0.256-0.061,0.494-0.181,0.713c-0.119,0.221-0.296,0.412-0.527,0.576
              c-0.232,0.164-0.521,0.295-0.864,0.391s-0.74,0.143-1.188,0.143c-0.553,0-1.08-0.088-1.585-0.264
              c-0.504-0.176-0.939-0.391-1.308-0.646L114.405,56.589z"></path>
 <path d="M35.89,74.554h-0.888l3.936-10.439h0.888L35.89,74.554z"></path>
<path d="M41.625,66.802h0.996l1.344,3.312c0.12,0.295,0.234,0.586,0.342,0.869s0.214,0.566,0.318,0.846h0.048
              c0.104-0.279,0.206-0.562,0.306-0.846s0.21-0.574,0.33-0.869l1.344-3.312h0.948l-2.412,5.832h-1.104L41.625,66.802z"></path>
<path d="M49.042,69.73c0-0.48,0.084-0.91,0.252-1.291c0.168-0.379,0.39-0.701,0.666-0.965s0.592-0.467,0.948-0.605
              c0.356-0.141,0.722-0.211,1.098-0.211c0.416,0,0.788,0.066,1.116,0.197c0.328,0.133,0.606,0.318,0.834,0.559
              s0.402,0.527,0.522,0.863c0.12,0.338,0.18,0.709,0.18,1.117c0,0.104-0.002,0.205-0.006,0.307c-0.004,0.1-0.014,0.186-0.03,0.258
              h-4.56c0.008,0.311,0.07,0.592,0.186,0.84c0.116,0.248,0.271,0.459,0.468,0.635c0.196,0.176,0.428,0.312,0.696,0.408
              c0.268,0.096,0.562,0.145,0.882,0.145c0.344,0,0.658-0.049,0.942-0.145c0.284-0.096,0.562-0.227,0.834-0.396l0.348,0.648
              c-0.288,0.186-0.616,0.344-0.984,0.48c-0.368,0.137-0.788,0.203-1.26,0.203c-0.432,0-0.838-0.068-1.218-0.209
              c-0.38-0.141-0.712-0.34-0.996-0.6c-0.284-0.26-0.508-0.578-0.672-0.955C49.124,70.638,49.042,70.211,49.042,69.73z M53.746,69.25
              c0-0.584-0.152-1.031-0.456-1.344c-0.304-0.312-0.728-0.469-1.272-0.469c-0.24,0-0.47,0.041-0.69,0.121
              c-0.22,0.08-0.418,0.197-0.594,0.354c-0.176,0.156-0.324,0.346-0.444,0.57c-0.12,0.225-0.2,0.48-0.24,0.768H53.746z"></path>
<path d="M57.165,66.802h0.816l0.084,1.379h0.036c0.304-0.471,0.678-0.844,1.122-1.115s0.938-0.408,1.482-0.408
              c0.216,0,0.416,0.018,0.6,0.055c0.184,0.035,0.368,0.098,0.552,0.186l-0.228,0.852c-0.208-0.072-0.382-0.123-0.522-0.156
              c-0.14-0.031-0.326-0.047-0.558-0.047c-0.44,0-0.862,0.125-1.266,0.377c-0.404,0.252-0.782,0.682-1.134,1.291v3.42h-0.984V66.802z"></path>
<path d="M63.729,64.089h0.984v2.328l-0.024,1.129c0.28-0.273,0.594-0.488,0.942-0.648s0.694-0.24,1.038-0.24
              c0.392,0,0.74,0.07,1.044,0.211c0.304,0.139,0.558,0.34,0.762,0.6c0.204,0.26,0.358,0.572,0.462,0.936
              c0.104,0.363,0.156,0.77,0.156,1.219c0,0.496-0.072,0.939-0.216,1.332c-0.144,0.391-0.338,0.723-0.582,0.996
              c-0.244,0.271-0.526,0.477-0.846,0.617s-0.652,0.209-0.996,0.209c-0.28,0-0.582-0.068-0.906-0.209
              c-0.324-0.141-0.626-0.334-0.906-0.582h-0.036l-0.084,0.648h-0.792V64.089z M64.713,71.265c0.28,0.248,0.562,0.424,0.846,0.529
              c0.284,0.104,0.53,0.156,0.738,0.156c0.256,0,0.492-0.055,0.708-0.162c0.216-0.109,0.404-0.26,0.564-0.457
              c0.16-0.195,0.284-0.438,0.372-0.727c0.088-0.287,0.132-0.611,0.132-0.971c0-0.32-0.032-0.613-0.096-0.877s-0.162-0.49-0.294-0.678
              c-0.132-0.188-0.302-0.334-0.51-0.438s-0.456-0.156-0.744-0.156c-0.256,0-0.53,0.07-0.822,0.209
              c-0.292,0.141-0.59,0.363-0.894,0.666V71.265z"></path>
<path d="M70.534,69.73c0-0.488,0.078-0.922,0.234-1.303c0.156-0.379,0.366-0.701,0.63-0.965s0.57-0.465,0.918-0.602
              c0.348-0.135,0.714-0.203,1.098-0.203c0.384,0,0.75,0.068,1.098,0.203c0.348,0.137,0.654,0.338,0.918,0.602
              c0.264,0.264,0.474,0.586,0.63,0.965c0.156,0.381,0.234,0.814,0.234,1.303c0,0.48-0.078,0.91-0.234,1.289
              c-0.156,0.381-0.366,0.701-0.63,0.961c-0.264,0.26-0.57,0.457-0.918,0.594c-0.348,0.137-0.714,0.203-1.098,0.203
              c-0.384,0-0.75-0.066-1.098-0.203s-0.654-0.334-0.918-0.594s-0.474-0.58-0.63-0.961C70.611,70.64,70.534,70.211,70.534,69.73z
               M71.554,69.73c0,0.336,0.043,0.641,0.132,0.912c0.088,0.271,0.214,0.506,0.378,0.701c0.164,0.197,0.36,0.348,0.588,0.457
              c0.228,0.107,0.482,0.162,0.762,0.162c0.28,0,0.534-0.055,0.762-0.162c0.228-0.109,0.424-0.26,0.588-0.457
              c0.164-0.195,0.29-0.43,0.378-0.701c0.088-0.271,0.132-0.576,0.132-0.912s-0.044-0.643-0.132-0.918
              c-0.088-0.275-0.214-0.514-0.378-0.715c-0.164-0.199-0.36-0.354-0.588-0.461c-0.228-0.109-0.482-0.162-0.762-0.162
              c-0.28,0-0.534,0.053-0.762,0.162c-0.228,0.107-0.424,0.262-0.588,0.461c-0.164,0.201-0.29,0.439-0.378,0.715
              C71.597,69.088,71.554,69.394,71.554,69.73z"></path>
<path d="M78.357,71.218c0.328,0.24,0.68,0.432,1.056,0.576c0.376,0.143,0.828,0.215,1.356,0.215c0.528,0,0.92-0.088,1.176-0.264
              c0.256-0.176,0.384-0.393,0.384-0.648c0-0.223-0.138-0.424-0.414-0.6c-0.276-0.176-0.77-0.352-1.482-0.527
              c-0.304-0.072-0.59-0.16-0.858-0.264c-0.268-0.105-0.502-0.227-0.702-0.367c-0.2-0.139-0.36-0.293-0.48-0.461
              s-0.18-0.357-0.18-0.564c0-0.232,0.052-0.449,0.156-0.654c0.104-0.203,0.258-0.379,0.462-0.527s0.46-0.264,0.768-0.348
              s0.662-0.127,1.062-0.127c0.44,0,0.868,0.074,1.284,0.223c0.416,0.148,0.768,0.322,1.056,0.521l-0.48,0.637
              c-0.256-0.186-0.54-0.332-0.852-0.445c-0.312-0.111-0.648-0.168-1.008-0.168c-0.272,0-0.5,0.023-0.684,0.066
              c-0.184,0.045-0.332,0.104-0.444,0.18c-0.112,0.076-0.192,0.166-0.24,0.27c-0.048,0.105-0.072,0.213-0.072,0.324
              c0,0.24,0.164,0.439,0.492,0.594c0.328,0.156,0.756,0.303,1.284,0.439c0.792,0.199,1.378,0.428,1.758,0.684
              c0.38,0.256,0.57,0.607,0.57,1.057c0,0.238-0.056,0.463-0.168,0.672c-0.112,0.207-0.278,0.391-0.498,0.551
              c-0.22,0.16-0.492,0.287-0.816,0.379c-0.324,0.092-0.694,0.137-1.11,0.137c-0.576,0-1.106-0.09-1.59-0.27s-0.906-0.393-1.266-0.641
              L78.357,71.218z"></path>
<path d="M85.041,69.73c0-0.48,0.084-0.91,0.252-1.291c0.168-0.379,0.39-0.701,0.666-0.965c0.276-0.264,0.592-0.467,0.948-0.605
              c0.355-0.141,0.722-0.211,1.098-0.211c0.416,0,0.788,0.066,1.116,0.197c0.328,0.133,0.606,0.318,0.834,0.559
              c0.229,0.24,0.402,0.527,0.522,0.863c0.119,0.338,0.18,0.709,0.18,1.117c0,0.104-0.002,0.205-0.006,0.307
              c-0.004,0.1-0.015,0.186-0.03,0.258h-4.56c0.008,0.311,0.069,0.592,0.186,0.84s0.271,0.459,0.468,0.635s0.428,0.312,0.696,0.408
              c0.268,0.096,0.562,0.145,0.882,0.145c0.344,0,0.658-0.049,0.942-0.145c0.283-0.096,0.562-0.227,0.834-0.396l0.348,0.648
              c-0.288,0.186-0.616,0.344-0.983,0.48c-0.368,0.137-0.788,0.203-1.261,0.203c-0.432,0-0.838-0.068-1.218-0.209
              s-0.712-0.34-0.996-0.6s-0.508-0.578-0.672-0.955C85.123,70.638,85.041,70.211,85.041,69.73z M89.745,69.25
              c0-0.584-0.152-1.031-0.456-1.344s-0.728-0.469-1.271-0.469c-0.24,0-0.471,0.041-0.69,0.121s-0.418,0.197-0.594,0.354
              c-0.177,0.156-0.324,0.346-0.444,0.57s-0.2,0.48-0.24,0.768H89.745z"></path>
<path d="M92.433,68.302h5.16v0.744h-5.16V68.302z"></path>
<path d="M99.585,64.089h2.977v6.66c0,0.432,0.102,0.742,0.306,0.93c0.204,0.189,0.481,0.283,0.834,0.283
              c0.319,0,0.688-0.092,1.104-0.277l0.252,0.744c-0.264,0.096-0.512,0.18-0.743,0.246c-0.232,0.068-0.509,0.102-0.828,0.102
              c-0.624,0-1.099-0.176-1.422-0.527c-0.324-0.352-0.486-0.875-0.486-1.572v-5.783h-1.992V64.089z"></path>
<path d="M106.533,69.73c0-0.488,0.077-0.922,0.233-1.303c0.156-0.379,0.366-0.701,0.63-0.965c0.265-0.264,0.57-0.465,0.918-0.602
              c0.349-0.135,0.714-0.203,1.099-0.203c0.384,0,0.75,0.068,1.098,0.203c0.348,0.137,0.654,0.338,0.918,0.602s0.474,0.586,0.63,0.965
              c0.156,0.381,0.234,0.814,0.234,1.303c0,0.48-0.078,0.91-0.234,1.289c-0.156,0.381-0.366,0.701-0.63,0.961s-0.57,0.457-0.918,0.594
              s-0.714,0.203-1.098,0.203c-0.385,0-0.75-0.066-1.099-0.203c-0.348-0.137-0.653-0.334-0.918-0.594
              c-0.264-0.26-0.474-0.58-0.63-0.961C106.61,70.64,106.533,70.211,106.533,69.73z M107.553,69.73c0,0.336,0.044,0.641,0.132,0.912
              s0.214,0.506,0.378,0.701c0.164,0.197,0.36,0.348,0.588,0.457c0.229,0.107,0.482,0.162,0.763,0.162
              c0.279,0,0.533-0.055,0.762-0.162c0.228-0.109,0.424-0.26,0.588-0.457c0.164-0.195,0.29-0.43,0.378-0.701s0.132-0.576,0.132-0.912
              s-0.044-0.643-0.132-0.918s-0.214-0.514-0.378-0.715c-0.164-0.199-0.36-0.354-0.588-0.461c-0.229-0.109-0.482-0.162-0.762-0.162
              c-0.28,0-0.534,0.053-0.763,0.162c-0.228,0.107-0.424,0.262-0.588,0.461c-0.164,0.201-0.29,0.439-0.378,0.715
              S107.553,69.394,107.553,69.73z"></path>
<path d="M113.877,73.703c0-0.232,0.082-0.461,0.246-0.686c0.164-0.223,0.402-0.428,0.714-0.611v-0.049
              c-0.16-0.088-0.3-0.207-0.42-0.359s-0.18-0.352-0.18-0.6c0-0.184,0.06-0.375,0.18-0.57s0.292-0.369,0.516-0.521v-0.049
              c-0.2-0.152-0.37-0.354-0.51-0.605s-0.21-0.555-0.21-0.906c0-0.32,0.062-0.607,0.187-0.863c0.123-0.256,0.289-0.475,0.497-0.654
              s0.45-0.32,0.727-0.42s0.57-0.15,0.882-0.15c0.32,0,0.608,0.049,0.864,0.145h2.412v0.756h-1.561c0.136,0.145,0.26,0.32,0.372,0.527
              c0.112,0.209,0.168,0.439,0.168,0.697c0,0.311-0.058,0.592-0.174,0.84s-0.276,0.457-0.479,0.629
              c-0.204,0.172-0.444,0.305-0.721,0.396c-0.275,0.092-0.569,0.139-0.882,0.139c-0.152,0-0.314-0.02-0.486-0.055
              c-0.172-0.037-0.338-0.09-0.498-0.162c-0.304,0.191-0.456,0.416-0.456,0.672c0,0.232,0.106,0.402,0.318,0.51
              s0.51,0.162,0.895,0.162h1.308c0.752,0,1.31,0.104,1.674,0.312c0.364,0.207,0.546,0.561,0.546,1.057
              c0,0.271-0.076,0.531-0.228,0.779c-0.152,0.248-0.368,0.463-0.648,0.648c-0.28,0.184-0.62,0.332-1.02,0.443
              c-0.4,0.111-0.849,0.168-1.345,0.168c-0.855,0-1.518-0.141-1.985-0.42S113.877,74.222,113.877,73.703z M114.728,73.605
              c0,0.305,0.162,0.553,0.486,0.744c0.324,0.193,0.798,0.289,1.422,0.289c0.336,0,0.641-0.035,0.912-0.102
              c0.272-0.068,0.504-0.158,0.696-0.271c0.191-0.111,0.338-0.24,0.438-0.383c0.101-0.145,0.15-0.293,0.15-0.445
              c0-0.279-0.11-0.467-0.33-0.562c-0.22-0.098-0.554-0.145-1.002-0.145h-1.14c-0.168,0-0.326-0.006-0.475-0.018
              c-0.147-0.012-0.286-0.039-0.414-0.078c-0.28,0.152-0.474,0.309-0.582,0.473C114.783,73.271,114.728,73.437,114.728,73.605z
               M116.505,70.127c0.376,0,0.694-0.125,0.954-0.373s0.39-0.584,0.39-1.008c0-0.199-0.036-0.385-0.107-0.553
              c-0.072-0.168-0.168-0.311-0.288-0.432c-0.12-0.119-0.263-0.213-0.426-0.281c-0.164-0.068-0.339-0.102-0.522-0.102
              s-0.358,0.033-0.521,0.102c-0.164,0.068-0.307,0.162-0.427,0.281c-0.12,0.121-0.216,0.264-0.288,0.432
              c-0.071,0.168-0.107,0.354-0.107,0.553c0,0.424,0.132,0.76,0.396,1.008C115.821,70.002,116.137,70.127,116.505,70.127z"></path>
<path d="M121.076,73.703c0-0.232,0.082-0.461,0.246-0.686c0.164-0.223,0.402-0.428,0.715-0.611v-0.049
              c-0.16-0.088-0.301-0.207-0.421-0.359c-0.119-0.152-0.18-0.352-0.18-0.6c0-0.184,0.061-0.375,0.18-0.57
              c0.12-0.195,0.292-0.369,0.517-0.521v-0.049c-0.2-0.152-0.37-0.354-0.51-0.605c-0.141-0.252-0.21-0.555-0.21-0.906
              c0-0.32,0.062-0.607,0.186-0.863s0.29-0.475,0.498-0.654s0.45-0.32,0.726-0.42c0.276-0.1,0.57-0.15,0.883-0.15
              c0.319,0,0.607,0.049,0.863,0.145h2.412v0.756h-1.56c0.136,0.145,0.26,0.32,0.372,0.527c0.111,0.209,0.168,0.439,0.168,0.697
              c0,0.311-0.059,0.592-0.174,0.84c-0.116,0.248-0.276,0.457-0.48,0.629s-0.444,0.305-0.72,0.396
              c-0.276,0.092-0.57,0.139-0.882,0.139c-0.152,0-0.314-0.02-0.486-0.055c-0.172-0.037-0.338-0.09-0.498-0.162
              c-0.304,0.191-0.456,0.416-0.456,0.672c0,0.232,0.105,0.402,0.318,0.51c0.212,0.107,0.51,0.162,0.894,0.162h1.308
              c0.752,0,1.311,0.104,1.675,0.312c0.363,0.207,0.546,0.561,0.546,1.057c0,0.271-0.076,0.531-0.229,0.779
              c-0.151,0.248-0.368,0.463-0.647,0.648c-0.28,0.184-0.62,0.332-1.021,0.443c-0.399,0.111-0.848,0.168-1.344,0.168
              c-0.856,0-1.518-0.141-1.986-0.42C121.31,74.623,121.076,74.222,121.076,73.703z M121.929,73.605c0,0.305,0.162,0.553,0.486,0.744
              c0.323,0.193,0.798,0.289,1.422,0.289c0.336,0,0.64-0.035,0.912-0.102c0.271-0.068,0.504-0.158,0.695-0.271
              c0.192-0.111,0.338-0.24,0.438-0.383c0.1-0.145,0.149-0.293,0.149-0.445c0-0.279-0.109-0.467-0.329-0.562
              c-0.221-0.098-0.555-0.145-1.003-0.145h-1.14c-0.168,0-0.326-0.006-0.474-0.018c-0.148-0.012-0.286-0.039-0.414-0.078
              c-0.28,0.152-0.475,0.309-0.582,0.473C121.982,73.271,121.929,73.437,121.929,73.605z M123.705,70.127
              c0.376,0,0.693-0.125,0.953-0.373c0.261-0.248,0.391-0.584,0.391-1.008c0-0.199-0.036-0.385-0.108-0.553s-0.168-0.311-0.288-0.432
              c-0.12-0.119-0.262-0.213-0.426-0.281s-0.338-0.102-0.521-0.102c-0.185,0-0.358,0.033-0.522,0.102s-0.306,0.162-0.426,0.281
              c-0.12,0.121-0.216,0.264-0.288,0.432s-0.108,0.354-0.108,0.553c0,0.424,0.132,0.76,0.396,1.008
              C123.02,70.002,123.337,70.127,123.705,70.127z"></path>
 <path d="M128.493,66.802h3.695v5.832h-0.983v-5.029h-2.712V66.802z M131.589,65.601c-0.232,0-0.422-0.066-0.57-0.203
              c-0.147-0.137-0.222-0.32-0.222-0.553c0-0.23,0.074-0.418,0.222-0.557c0.148-0.141,0.338-0.211,0.57-0.211
              c0.224,0,0.412,0.07,0.564,0.211c0.151,0.139,0.228,0.326,0.228,0.557c0,0.232-0.076,0.416-0.228,0.553
              C132.001,65.535,131.812,65.601,131.589,65.601z"></path>
<path d="M135.728,66.802h0.816l0.084,0.996h0.048c0.304-0.328,0.632-0.6,0.983-0.816c0.353-0.217,0.757-0.324,1.212-0.324
              c0.696,0,1.206,0.197,1.53,0.594s0.486,0.982,0.486,1.758v3.625h-0.984v-3.492c0-0.553-0.104-0.963-0.312-1.23
              s-0.552-0.402-1.032-0.402c-0.176,0-0.338,0.023-0.486,0.066c-0.147,0.045-0.294,0.109-0.438,0.197
              c-0.145,0.09-0.292,0.199-0.444,0.33c-0.152,0.133-0.312,0.287-0.479,0.463v4.068h-0.984V66.802z"></path>
<path d="M142.676,73.703c0-0.232,0.082-0.461,0.246-0.686c0.164-0.223,0.402-0.428,0.715-0.611v-0.049
              c-0.16-0.088-0.301-0.207-0.421-0.359c-0.119-0.152-0.18-0.352-0.18-0.6c0-0.184,0.061-0.375,0.18-0.57
              c0.12-0.195,0.292-0.369,0.517-0.521v-0.049c-0.2-0.152-0.37-0.354-0.51-0.605c-0.141-0.252-0.21-0.555-0.21-0.906
              c0-0.32,0.062-0.607,0.186-0.863s0.29-0.475,0.498-0.654s0.45-0.32,0.726-0.42c0.276-0.1,0.57-0.15,0.883-0.15
              c0.319,0,0.607,0.049,0.863,0.145h2.412v0.756h-1.56c0.136,0.145,0.26,0.32,0.372,0.527c0.111,0.209,0.168,0.439,0.168,0.697
              c0,0.311-0.059,0.592-0.174,0.84c-0.116,0.248-0.276,0.457-0.48,0.629s-0.444,0.305-0.72,0.396
              c-0.276,0.092-0.57,0.139-0.882,0.139c-0.152,0-0.314-0.02-0.486-0.055c-0.172-0.037-0.338-0.09-0.498-0.162
              c-0.304,0.191-0.456,0.416-0.456,0.672c0,0.232,0.105,0.402,0.318,0.51c0.212,0.107,0.51,0.162,0.894,0.162h1.308
              c0.752,0,1.311,0.104,1.675,0.312c0.363,0.207,0.546,0.561,0.546,1.057c0,0.271-0.076,0.531-0.229,0.779
              c-0.151,0.248-0.368,0.463-0.647,0.648c-0.28,0.184-0.62,0.332-1.021,0.443c-0.399,0.111-0.848,0.168-1.344,0.168
              c-0.856,0-1.518-0.141-1.986-0.42C142.91,74.623,142.676,74.222,142.676,73.703z M143.528,73.605c0,0.305,0.162,0.553,0.486,0.744
              c0.323,0.193,0.798,0.289,1.422,0.289c0.336,0,0.64-0.035,0.912-0.102c0.271-0.068,0.504-0.158,0.695-0.271
              c0.192-0.111,0.338-0.24,0.438-0.383c0.1-0.145,0.149-0.293,0.149-0.445c0-0.279-0.109-0.467-0.329-0.562
              c-0.221-0.098-0.555-0.145-1.003-0.145h-1.14c-0.168,0-0.326-0.006-0.474-0.018c-0.148-0.012-0.286-0.039-0.414-0.078
              c-0.28,0.152-0.475,0.309-0.582,0.473C143.582,73.271,143.528,73.437,143.528,73.605z M145.305,70.127
              c0.376,0,0.693-0.125,0.953-0.373c0.261-0.248,0.391-0.584,0.391-1.008c0-0.199-0.036-0.385-0.108-0.553s-0.168-0.311-0.288-0.432
              c-0.12-0.119-0.262-0.213-0.426-0.281s-0.338-0.102-0.521-0.102c-0.185,0-0.358,0.033-0.522,0.102s-0.306,0.162-0.426,0.281
              c-0.12,0.121-0.216,0.264-0.288,0.432s-0.108,0.354-0.108,0.553c0,0.424,0.132,0.76,0.396,1.008
              C144.62,70.002,144.936,70.127,145.305,70.127z"></path>
<path d="M35.89,88.953h-0.888l3.936-10.439h0.888L35.89,88.953z"></path>
<path d="M42.766,81.201h0.816l0.084,1.381h0.036c0.304-0.473,0.678-0.844,1.122-1.117c0.444-0.271,0.938-0.406,1.482-0.406
              c0.216,0,0.416,0.018,0.6,0.053c0.184,0.037,0.368,0.098,0.552,0.186l-0.228,0.854c-0.208-0.072-0.382-0.125-0.522-0.156
              c-0.14-0.033-0.326-0.049-0.558-0.049c-0.44,0-0.862,0.127-1.266,0.379c-0.404,0.252-0.782,0.682-1.134,1.289v3.42h-0.984V81.201z"></path>
<path d="M49.042,84.129c0-0.479,0.084-0.908,0.252-1.289s0.39-0.703,0.666-0.967s0.592-0.465,0.948-0.605s0.722-0.209,1.098-0.209
              c0.416,0,0.788,0.064,1.116,0.197c0.328,0.131,0.606,0.318,0.834,0.559c0.228,0.238,0.402,0.527,0.522,0.863
              c0.12,0.336,0.18,0.707,0.18,1.115c0,0.105-0.002,0.207-0.006,0.307s-0.014,0.186-0.03,0.258h-4.56
              c0.008,0.312,0.07,0.592,0.186,0.84c0.116,0.248,0.271,0.461,0.468,0.637c0.196,0.176,0.428,0.312,0.696,0.408
              c0.268,0.096,0.562,0.143,0.882,0.143c0.344,0,0.658-0.047,0.942-0.143c0.284-0.096,0.562-0.229,0.834-0.396l0.348,0.648
              c-0.288,0.184-0.616,0.344-0.984,0.48c-0.368,0.135-0.788,0.203-1.26,0.203c-0.432,0-0.838-0.07-1.218-0.211
              c-0.38-0.139-0.712-0.34-0.996-0.6c-0.284-0.26-0.508-0.578-0.672-0.953C49.124,85.037,49.042,84.609,49.042,84.129z M53.746,83.65
              c0-0.584-0.152-1.033-0.456-1.344c-0.304-0.312-0.728-0.469-1.272-0.469c-0.24,0-0.47,0.039-0.69,0.119
              c-0.22,0.08-0.418,0.199-0.594,0.355c-0.176,0.154-0.324,0.346-0.444,0.568c-0.12,0.225-0.2,0.48-0.24,0.77H53.746z"></path>
<path d="M56.134,84.129c0-0.471,0.074-0.896,0.222-1.277c0.148-0.379,0.344-0.701,0.588-0.967c0.244-0.264,0.526-0.467,0.846-0.611
              s0.652-0.215,0.996-0.215c0.36,0,0.676,0.066,0.948,0.203s0.544,0.32,0.816,0.553l-0.036-1.08V78.49h0.984v8.543h-0.816
              l-0.084-0.768h-0.036c-0.24,0.248-0.526,0.463-0.858,0.643s-0.678,0.27-1.038,0.27c-0.384,0-0.73-0.068-1.038-0.203
              c-0.308-0.137-0.574-0.334-0.798-0.596c-0.224-0.26-0.396-0.576-0.516-0.953S56.134,84.617,56.134,84.129z M57.154,84.117
              c0,0.705,0.15,1.252,0.45,1.645c0.3,0.393,0.722,0.588,1.266,0.588c0.576,0,1.124-0.291,1.644-0.875V82.57
              c-0.264-0.248-0.522-0.424-0.774-0.529c-0.252-0.104-0.506-0.156-0.762-0.156s-0.494,0.055-0.714,0.162
              c-0.22,0.109-0.412,0.262-0.576,0.457s-0.294,0.43-0.39,0.701C57.202,83.478,57.154,83.781,57.154,84.117z"></path>
<path d="M63.441,84.129c0-0.479,0.084-0.908,0.252-1.289s0.39-0.703,0.666-0.967s0.592-0.465,0.948-0.605s0.722-0.209,1.098-0.209
              c0.416,0,0.788,0.064,1.116,0.197c0.328,0.131,0.606,0.318,0.834,0.559c0.228,0.238,0.402,0.527,0.522,0.863
              c0.12,0.336,0.18,0.707,0.18,1.115c0,0.105-0.002,0.207-0.006,0.307s-0.014,0.186-0.03,0.258h-4.56
              c0.008,0.312,0.07,0.592,0.186,0.84c0.116,0.248,0.271,0.461,0.468,0.637c0.196,0.176,0.428,0.312,0.696,0.408
              c0.268,0.096,0.562,0.143,0.882,0.143c0.344,0,0.658-0.047,0.942-0.143c0.284-0.096,0.562-0.229,0.834-0.396l0.348,0.648
              c-0.288,0.184-0.616,0.344-0.984,0.48c-0.368,0.135-0.788,0.203-1.26,0.203c-0.432,0-0.838-0.07-1.218-0.211
              c-0.38-0.139-0.712-0.34-0.996-0.6c-0.284-0.26-0.508-0.578-0.672-0.953C63.523,85.037,63.441,84.609,63.441,84.129z M68.145,83.65
              c0-0.584-0.152-1.033-0.456-1.344c-0.304-0.312-0.728-0.469-1.272-0.469c-0.24,0-0.47,0.039-0.69,0.119
              c-0.22,0.08-0.418,0.199-0.594,0.355c-0.176,0.154-0.324,0.346-0.444,0.568c-0.12,0.225-0.2,0.48-0.24,0.77H68.145z"></path>
<path d="M71.158,85.617c0.328,0.24,0.68,0.432,1.056,0.576s0.828,0.217,1.356,0.217c0.528,0,0.92-0.088,1.176-0.264
              c0.256-0.176,0.384-0.393,0.384-0.648c0-0.225-0.138-0.424-0.414-0.6c-0.276-0.176-0.77-0.354-1.482-0.529
              c-0.304-0.072-0.59-0.16-0.858-0.264s-0.502-0.227-0.702-0.365c-0.2-0.141-0.36-0.295-0.48-0.463s-0.18-0.355-0.18-0.564
              c0-0.23,0.052-0.449,0.156-0.652c0.104-0.205,0.258-0.381,0.462-0.529s0.46-0.264,0.768-0.348s0.662-0.125,1.062-0.125
              c0.44,0,0.868,0.072,1.284,0.221c0.416,0.148,0.768,0.322,1.056,0.521l-0.48,0.637c-0.256-0.184-0.54-0.332-0.852-0.443
              c-0.312-0.113-0.648-0.168-1.008-0.168c-0.272,0-0.5,0.021-0.684,0.066c-0.184,0.043-0.332,0.104-0.444,0.18
              c-0.112,0.076-0.192,0.166-0.24,0.27c-0.048,0.104-0.072,0.213-0.072,0.324c0,0.24,0.164,0.438,0.492,0.594
              c0.328,0.156,0.756,0.303,1.284,0.438c0.792,0.201,1.378,0.428,1.758,0.684c0.38,0.258,0.57,0.609,0.57,1.057
              c0,0.24-0.056,0.465-0.168,0.672c-0.112,0.209-0.278,0.393-0.498,0.553c-0.22,0.16-0.492,0.285-0.816,0.377
              c-0.324,0.092-0.694,0.139-1.11,0.139c-0.576,0-1.106-0.09-1.59-0.27s-0.906-0.395-1.266-0.643L71.158,85.617z"></path>
<path d="M78.093,81.201h3.696v5.832h-0.984v-5.027h-2.712V81.201z M81.189,80.002c-0.232,0-0.422-0.068-0.57-0.205
              c-0.148-0.135-0.222-0.318-0.222-0.551s0.074-0.418,0.222-0.559s0.338-0.209,0.57-0.209c0.224,0,0.412,0.068,0.564,0.209
              c0.152,0.141,0.228,0.326,0.228,0.559s-0.076,0.416-0.228,0.551C81.601,79.933,81.413,80.002,81.189,80.002z"></path>
<path d="M85.077,88.101c0-0.232,0.082-0.461,0.246-0.684c0.164-0.225,0.402-0.428,0.714-0.611v-0.049
              c-0.16-0.088-0.3-0.209-0.42-0.359c-0.12-0.152-0.18-0.354-0.18-0.602c0-0.184,0.06-0.373,0.18-0.568
              c0.12-0.197,0.292-0.371,0.516-0.523v-0.047c-0.2-0.152-0.37-0.355-0.51-0.607c-0.14-0.252-0.21-0.553-0.21-0.904
              c0-0.32,0.062-0.609,0.186-0.865c0.124-0.256,0.29-0.473,0.498-0.654c0.208-0.18,0.45-0.318,0.727-0.42
              c0.276-0.1,0.57-0.148,0.882-0.148c0.32,0,0.608,0.047,0.864,0.143h2.412v0.756h-1.561c0.136,0.145,0.26,0.32,0.372,0.529
              c0.112,0.207,0.168,0.439,0.168,0.695c0,0.312-0.058,0.592-0.174,0.84s-0.276,0.459-0.479,0.631
              c-0.204,0.172-0.444,0.303-0.721,0.395c-0.275,0.094-0.569,0.139-0.882,0.139c-0.152,0-0.314-0.018-0.486-0.055
              c-0.172-0.035-0.338-0.09-0.498-0.162c-0.304,0.193-0.456,0.418-0.456,0.674c0,0.23,0.106,0.4,0.318,0.51
              c0.212,0.107,0.51,0.162,0.895,0.162h1.308c0.752,0,1.31,0.104,1.674,0.311c0.364,0.209,0.546,0.561,0.546,1.057
              c0,0.271-0.076,0.531-0.228,0.779c-0.152,0.248-0.368,0.465-0.648,0.648s-0.62,0.332-1.02,0.443c-0.4,0.113-0.849,0.17-1.345,0.17
              c-0.855,0-1.518-0.141-1.986-0.422C85.311,89.021,85.077,88.621,85.077,88.101z M85.929,88.005c0,0.305,0.162,0.553,0.486,0.744
              s0.798,0.287,1.422,0.287c0.336,0,0.641-0.033,0.912-0.102c0.272-0.068,0.504-0.158,0.696-0.27c0.191-0.113,0.338-0.24,0.438-0.385
              c0.101-0.145,0.15-0.291,0.15-0.443c0-0.281-0.11-0.469-0.33-0.564s-0.554-0.145-1.002-0.145h-1.14
              c-0.168,0-0.326-0.006-0.475-0.018c-0.147-0.012-0.286-0.037-0.414-0.078c-0.28,0.152-0.474,0.311-0.582,0.475
              C85.983,87.671,85.929,87.838,85.929,88.005z M87.705,84.525c0.376,0,0.694-0.123,0.954-0.371s0.39-0.584,0.39-1.008
              c0-0.201-0.036-0.385-0.107-0.553c-0.072-0.168-0.168-0.312-0.288-0.432c-0.12-0.121-0.263-0.215-0.426-0.283
              c-0.164-0.066-0.339-0.102-0.522-0.102s-0.358,0.035-0.521,0.102c-0.164,0.068-0.307,0.162-0.427,0.283
              c-0.12,0.119-0.216,0.264-0.288,0.432c-0.071,0.168-0.107,0.352-0.107,0.553c0,0.424,0.132,0.76,0.396,1.008
              C87.021,84.402,87.337,84.525,87.705,84.525z"></path>
<path d="M92.529,81.201h0.816l0.084,0.996h0.048c0.304-0.328,0.632-0.6,0.983-0.816c0.353-0.215,0.757-0.322,1.212-0.322
              c0.696,0,1.206,0.197,1.53,0.594c0.324,0.395,0.486,0.982,0.486,1.758v3.623h-0.984v-3.492c0-0.551-0.104-0.961-0.312-1.229
              c-0.208-0.27-0.552-0.402-1.032-0.402c-0.176,0-0.338,0.021-0.486,0.066c-0.147,0.043-0.294,0.109-0.438,0.197
              c-0.145,0.088-0.292,0.197-0.444,0.33c-0.152,0.131-0.312,0.285-0.479,0.461v4.068h-0.984V81.201z"></path>
</g>
<polyline fill="none" stroke="#CCCCCC" stroke-width="0.5" stroke-miterlimit="10" points="24.187,32.879 24.187,40.589
            32.194,40.589 "></polyline>
<polyline fill="none" stroke="#CCCCCC" stroke-width="0.5" stroke-miterlimit="10" points="24.187,61.879 24.187,69.589
            32.194,69.589 "></polyline>
<polyline fill="none" stroke="#CCCCCC" stroke-width="0.5" stroke-miterlimit="10" points="24.187,69.879 24.187,83.589
            32.194,83.589 "></polyline>
<g>
<path fill="none" stroke="none" stroke-miterlimit="10" d="M161.706,96.274c0,2.97-2.43,5.4-5.4,5.4H13.995
              c-2.97,0-5.4-2.43-5.4-5.4V13.518c0-2.97,2.43-5.4,5.4-5.4h142.311c2.97,0,5.4,2.43,5.4,5.4V96.274z"></path>
</g>
</svg>
