<svg version="1.1" id="Layer_1" xmlns="http://www.w3.org/2000/svg" xmlns:xlink="http://www.w3.org/1999/xlink" x="0px" y="0px" preserveAspectRatio="xMidYMin" height="125px" viewBox="0 0 201.6 103.247" enable-background="new 0 0 201.6 103.247" xml:space="preserve">
<g>
<circle fill="#53A3D8" cx="90.874" cy="52.299" r="31.561"></circle>
<text transform="matrix(1 0 0 1 65.6749 54.8786)" fill="#FFFFFF" font-family="'SourceCodePro-Semibold'" font-size="12">/config</text>
<path fill="#8AC9EF" d="M90.875,10.736c-22.918,0-41.563,18.645-41.563,41.563s18.646,41.563,41.563,41.563
              s41.563-18.645,41.563-41.563S113.793,10.736,90.875,10.736z M90.875,92.566c-22.203,0-40.267-18.064-40.267-40.267
              s18.063-40.267,40.267-40.267s40.267,18.064,40.267,40.267S113.078,92.566,90.875,92.566z"></path>
<path fill="#8AC9EF" d="M158.925,52.299c0,18.108-7.123,34.573-18.696,46.778h2.988c11.121-12.431,17.9-28.825,17.9-46.778
              c0-17.953-6.779-34.347-17.9-46.778h-2.988C151.803,17.726,158.925,34.191,158.925,52.299z"></path>
<g>
<path fill="#8AC9EF" d="M143.221,52.299c0,20.435-11.777,38.161-28.894,46.778h3.538c16.148-9.354,27.042-26.812,27.042-46.778
                s-10.894-37.424-27.042-46.778h-3.538C131.444,14.138,143.221,31.864,143.221,52.299z"></path>
<path fill="#8AC9EF" d="M38.528,52.299c0-20.435,11.777-38.161,28.894-46.778h-3.538c-16.148,9.354-27.042,26.812-27.042,46.778
                s10.894,37.424,27.042,46.778h3.538C50.305,90.459,38.528,72.734,38.528,52.299z"></path>
</g>
<circle fill="#F15E6B" cx="43.642" cy="27.971" r="5.38"></circle>
<circle fill="#F15E6B" cx="157.642" cy="70.033" r="5.38"></circle>
<text transform="matrix(1 0 0 1 166.5813 73.1955)" fill="#F15E6B" font-family="'SourceCodePro-Regular'" font-size="12">app2</text>
<text transform="matrix(1 0 0 1 6.2184 31.3405)" fill="#F15E6B" font-family="'SourceCodePro-Regular'" font-size="12">app1</text>
<g>
<path fill="#8AC9EF" d="M30.614,20.738c2.933-5.569,6.611-10.687,10.906-15.217h-2.988c-4.092,4.574-7.591,9.689-10.386,15.217
                H30.614z"></path>
<path fill="#8AC9EF" d="M24.781,36.1h-2.259c-1.234,5.202-1.89,10.625-1.89,16.199c0,17.953,6.778,34.347,17.9,46.778h2.988
                c-11.573-12.205-18.696-28.67-18.696-46.778C22.824,46.717,23.505,41.293,24.781,36.1z"></path>
</g>
</g>
</svg>
